<svg width="27" height="807" viewBox="0 0 27 807" fill="none" xmlns="http://www.w3.org/2000/svg">
<path d="M7.2 749.317H0V58.2428H7.2V749.317Z" fill="#F8AB07"/>
<path d="M27 749.317H21V58.2428H27V749.317Z" fill="#F8AB07"/>
<rect x="7.80029" y="60.4831" width="12.6" height="688.834" fill="#F9C802"/>
<path d="M21.0002 749.317H7.8002H7.2002L13.2002 790.759H14.4002L21.0002 749.317Z" fill="#F6C986"/>
<path d="M7.2 749.317H0L10.2 790.759H13.2L7.2 749.317Z" fill="#FBE099"/>
<path d="M21 749.317H27L17.4 790.759H14.4L21 749.317Z" fill="#F6BD7E"/>
<path d="M17.4002 790.759H10.2002L13.8002 807L17.4002 790.759Z" fill="black"/>
<rect y="42.5621" width="27" height="17.9209" fill="#D3D3D3"/>
<path d="M0 13.5V42.5621H27V13.5C27 6.04416 20.9558 0 13.5 0C6.04416 0 0 6.04415 0 13.5Z" fill="#85A0CF"/>
</svg>
