<svg width="27" height="521" viewBox="0 0 27 521" fill="none" xmlns="http://www.w3.org/2000/svg">
<path d="M7.20017 483.76H0.000171661V37.6014H7.20017V483.76Z" fill="#F8AB07"/>
<path d="M27.0002 483.76H21.0002V37.6014H27.0002V483.76Z" fill="#F8AB07"/>
<rect x="7.80046" y="39.0481" width="12.6" height="444.712" fill="#F9C802"/>
<path d="M21.0004 483.76H7.80037H7.20037L13.2004 510.515H14.4004L21.0004 483.76Z" fill="#F6C986"/>
<path d="M7.20017 483.76H0.000171661L10.2002 510.515H13.2002L7.20017 483.76Z" fill="#FBE099"/>
<path d="M21.0002 483.76H27.0002L17.4002 510.515H14.4002L21.0002 483.76Z" fill="#F6BD7E"/>
<path d="M17.4004 510.515H10.2004L13.8004 521L17.4004 510.515Z" fill="black"/>
<rect x="0.000171661" y="27.4781" width="27" height="11.5697" fill="#D3D3D3"/>
<path d="M0 13.5V27.4781H27V13.5C27 6.04415 20.9558 0 13.5 0C6.04416 0 0 6.04415 0 13.5Z" fill="#85A0CF"/>
</svg>
